SplineFontDB: 3.2
FontName: Prospero
FullName: Prospero
FamilyName: Prospero
Weight: Regular
Copyright: Copyright (c) 2026, Dave Jeffery (https://kecskebak.hu|info@kecskebak.hu),\nwith Reserved Font Name Prospero.\n\n\nThis Font Software is licensed under the SIL Open Font License, Version 1.1.\nThis license is copied below, and is also available with a FAQ at:\nhttps://openfontlicense.org\n
UComments: "2026-7-19: Created with FontForge (http://fontforge.org)+AAoACgAA-This font is based on a scan of the original Prospero font drawn by Alan Jeapes in 1985 for the British Broadcasting Corporation. This scan was obtained from Alan Jeapes's son by Mark Boulton. Scan was forwarded to me by Andrew Wiseman. The glyphs were traced by hand in Inkscape v1.4.4 by Dave Jeffery."
FontLog: "2026.07.21. v0.1 First version of .otf font exported"
Version: 001.000
ItalicAngle: 0
UnderlinePosition: -100
UnderlineWidth: 50
Ascent: 800
Descent: 200
InvalidEm: 0
LayerCount: 2
Layer: 0 0 "Back" 1
Layer: 1 0 "Fore" 0
XUID: [1021 982 318616617 4222588]
FSType: 0
OS2Version: 0
OS2_WeightWidthSlopeOnly: 0
OS2_UseTypoMetrics: 1
CreationTime: 1784451120
ModificationTime: 1784790848
PfmFamily: 17
TTFWeight: 400
TTFWidth: 5
LineGap: 90
VLineGap: 0
OS2TypoAscent: 0
OS2TypoAOffset: 1
OS2TypoDescent: 0
OS2TypoDOffset: 1
OS2TypoLinegap: 90
OS2WinAscent: 0
OS2WinAOffset: 1
OS2WinDescent: 0
OS2WinDOffset: 1
HheadAscent: 0
HheadAOffset: 1
HheadDescent: 0
HheadDOffset: 1
OS2Vendor: 'PfEd'
Lookup: 258 0 0 "'kern' Horizontal Kerning in Latin lookup 0" { "'kern' Horizontal Kerning in Latin lookup 0-1" [150,15,0] } ['kern' ('DFLT' <'dflt' > 'latn' <'dflt' > ) ]
MarkAttachClasses: 1
DEI: 91125
LangName: 1033
Encoding: ISO8859-1
UnicodeInterp: none
NameList: AGL For New Fonts
DisplaySize: -48
AntiAlias: 1
FitToEm: 0
WidthSeparation: 150
WinInfo: 0 16 4
BeginPrivate: 0
EndPrivate

StartChar: N
Encoding: 78 78 0
Width: 991
Flags: W
HStem: -172 10<56.0015 77.7847 220.827 241.998> 688 8<62.0022 67 753.001 769.082 908.629 932>
VStem: 132 49<-127.85 550.997> 811 48<3.00146 667.949>
LayerCount: 2
Fore
SplineSet
215 696 m 1
 792 8 l 1
 791 10 800 3 804 3 c 0
 809 3 811 5 811 8 c 2
 811 630 l 2
 811 658 791 679 757 688 c 0
 755 689 753 690 753 692 c 0
 753 694 754 696 757 696 c 2
 932 696 l 1
 932 696 936 695 936 692 c 0
 936 689 932 688 932 688 c 1
 896 688 859 660 859 624 c 2
 859 -172 l 1
 801 -172 l 1
 197 547 l 2
 196 548 192 551 188 551 c 0
 184 551 181 547 181 543 c 2
 181 -86 l 2
 181 -121 212 -162 236 -162 c 0
 240 -162 242 -164 242 -167 c 0
 242 -170 239 -172 236 -172 c 2
 60 -172 l 2
 58 -172 56 -169 56 -167 c 0
 56 -164 58 -162 60 -162 c 0
 90 -162 132 -113 132 -75 c 2
 132 604 l 2
 132 644 67 688 67 688 c 2
 65 688 62 690 62 692 c 0
 62 694 64 696 67 696 c 2
 215 696 l 1
EndSplineSet
Validated: 1
EndChar

StartChar: M
Encoding: 77 77 1
Width: 1046
Flags: W
HStem: -172 9.75098<54.1439 73.8999 206.131 228.23 742.588 760.132 969.095 987.628> 687.776 8.22363<89.7407 118.975 956.987 982.52>
VStem: 792.854 109.693<333.787 525.492> 808.383 111.858<-136.443 192.746>
LayerCount: 2
Fore
SplineSet
94.61328125 696 m 6xe0
 268.76171875 696 l 5
 517.76171875 24.5 l 5
 817.209960938 696 l 5
 978.13671875 696 l 6
 981.51171875 696 982.532226562 694.059570312 982.532226562 691.51953125 c 4
 982.532226562 689.327148438 978.5234375 687.663085938 974.802734375 687.663085938 c 4
 935.625 687.663085938 902.53125 636.202148438 902.53125 602.41796875 c 0
 902.53125 601.975585938 902.536132812 601.536132812 902.547851562 601.099609375 c 6xe0
 920.241210938 -74.56640625 l 6
 920.5859375 -87.73046875 922.05859375 -143.966796875 979.1640625 -162.189453125 c 4
 982.443359375 -163.235351562 987.631835938 -163.670898438 987.631835938 -167.141601562 c 4
 987.631835938 -170 984.39453125 -172 981.88671875 -172 c 6
 748.94921875 -172 l 6
 744.159179688 -172 742.762695312 -169.237304688 742.588867188 -167.186523438 c 4
 742.578125 -167.065429688 742.573242188 -166.943359375 742.573242188 -166.8203125 c 0
 742.573242188 -164.864257812 743.859375 -162.75 745.727539062 -162.249023438 c 4
 760.459960938 -158.30078125 805.376953125 -147.400390625 808.3828125 -67.4970703125 c 5xd0
 792.854492188 525.4921875 l 5
 482.401367188 -194.965820312 l 5
 216.336914062 516.65625 l 5
 175.038085938 -73.94921875 l 6
 174.84375 -76.7255859375 174.748046875 -79.5166015625 174.748046875 -82.30859375 c 0
 174.748046875 -118.765625 191.01953125 -155.374023438 216.208007812 -162.124023438 c 4
 222.77734375 -163.883789062 228.234375 -163.624023438 228.234375 -167.061523438 c 4
 228.234375 -171.1953125 223.455078125 -172 218.26171875 -172 c 6
 59.4287109375 -172 l 6
 55.9931640625 -172 54 -170.163085938 54 -168.061523438 c 4
 54 -165.837890625 56.017578125 -164.725585938 57.595703125 -164.124023438 c 4
 86.4033203125 -153.145507812 118.05859375 -139.745117188 122.162109375 -81.0546875 c 6
 164.821289062 529 l 6
 165.677734375 541.247070312 166.78515625 557.081054688 166.78515625 573.99609375 c 0
 166.78515625 625.81640625 156.392578125 687.776367188 96.556640625 687.776367188 c 4
 91.7646484375 687.776367188 89.7392578125 689.783203125 89.7392578125 691.888671875 c 4
 89.7392578125 694.3046875 91.6953125 696 94.61328125 696 c 6xe0
EndSplineSet
Validated: 524289
EndChar

StartChar: L
Encoding: 76 76 2
Width: 691
Flags: W
HStem: -172 50.8223<260.445 506.421> -172 10<54.0015 81.5363> 688 8<74.0015 87.2505 314.88 329.999>
VStem: 138 114<-99.4501 643.524>
LayerCount: 2
Fore
SplineSet
78 696 m 6x70
 327 696 l 6
 329 696 330 694 330 692 c 4
 330 690 329 688 327 688 c 4
 313 688 252 654 252 557 c 6
 252 237 l 6
 252 116.412109375 245.079101562 30.771484375 245.079101562 -25.0087890625 c 0
 245.079101562 -64.0556640625 248.470703125 -88.470703125 260 -100 c 4
 269 -109 310 -121 363 -121 c 4
 365.400390625 -121 370.501953125 -121.177734375 377.747070312 -121.177734375 c 0xb0
 424.83984375 -121.177734375 562.466796875 -113.666992188 637 -1 c 5
 592 -172 l 5
 59 -172 l 6
 56 -172 54 -170 54 -167 c 4
 54 -165 56 -162 59 -162 c 4
 111 -162 138 -99 138 -60 c 6
 138 614 l 6
 138 649 88 688 78 688 c 4
 76 688 74 689 74 692 c 4
 74 695 76 696 78 696 c 6x70
EndSplineSet
Validated: 524289
EndChar

StartChar: K
Encoding: 75 75 3
Width: 862
Flags: W
HStem: -172 10<55.0015 78.1 284.611 314.999 553.001 563.968 773.637 797.999> 680 8<66.0015 87.7132 294.201 317.998> 688 8<556.001 569.004 773.46 793.998>
VStem: 129 114<-135.33 259.997 306 648.957>
LayerCount: 2
Fore
SplineSet
70 680 m 0xd0
 68 680 66 682 66 684 c 0
 66 686 68 688 70 688 c 2
 313 688 l 2
 315 688 318 686 318 684 c 0
 318 682 315 680 313 680 c 0xd0
 258 680 243 602 243 559 c 2
 243 306 l 1
 573 604 l 2
 589 618 595 639 595 654 c 0
 595 675 562 688 560 688 c 0
 558 688 556 690 556 692 c 0
 556 694 558 696 560 696 c 2
 790 696 l 2
 792 696 794 694 794 692 c 0
 794 690 791 688 790 688 c 0xb0
 773 688 715 662 664 616 c 2
 340 324 l 1
 715 -123 l 2
 741 -154 792 -161 794 -162 c 0
 796 -163 798 -165 798 -167 c 0
 798 -169 796 -172 794 -172 c 2
 557 -172 l 2
 555 -172 553 -169 553 -167 c 0
 553 -165 555 -162 557 -162 c 0
 559 -162 570 -154 570 -145 c 0
 570 -136 560 -112 547 -97 c 2
 249 259 l 2
 248 260 248 260 247 260 c 0
 245 260 243 256 243 253 c 2
 243 -104 l 2
 243 -140 279 -162 309 -162 c 0
 313 -162 315 -164 315 -167 c 0
 315 -170 313 -172 309 -172 c 2
 59 -172 l 2
 57 -172 55 -169 55 -167 c 0
 55 -165 57 -162 59 -162 c 0
 89 -162 129 -122 129 -90 c 2
 129 606 l 2
 129 635 107 680 70 680 c 0xd0
EndSplineSet
Validated: 1
EndChar

StartChar: J
Encoding: 74 74 4
Width: 439
Flags: W
HStem: 688 8<136.001 149.25 366.688 383.999>
VStem: 200 112<-21.8437 654.243>
LayerCount: 2
Fore
SplineSet
140 696 m 2
 380 696 l 2
 382 696 384 695 384 692 c 0
 384 689 382 688 380 688 c 0
 357 688 314 647 314 594 c 2
 312 111 l 2
 310 -172 84 -208 60 -208 c 0
 55 -208 52 -205 52 -201 c 0
 52 -197 57 -195 60 -193 c 0
 153 -135 200 -62 200 159 c 2
 200 614 l 2
 200 649 150 688 140 688 c 0
 138 688 136 689 136 692 c 0
 136 695 138 696 140 696 c 2
EndSplineSet
Validated: 1
EndChar

StartChar: I
Encoding: 73 73 5
Width: 371
Flags: W
HStem: -172 8<56.0015 72.0545 292.392 307.999> 688 8<64.0015 77.2505 294.688 311.999>
VStem: 128 114<-130.003 657.204>
LayerCount: 2
Fore
SplineSet
68 696 m 2
 308 696 l 2
 310 696 312 695 312 692 c 0
 312 689 310 688 308 688 c 0
 285 688 242 647 242 594 c 2
 242 -90 l 2
 242 -138 294 -164 304 -164 c 0
 306 -164 308 -165 308 -168 c 0
 308 -171 306 -172 304 -172 c 2
 60 -172 l 2
 58 -172 56 -171 56 -168 c 0
 56 -165 58 -164 60 -164 c 0
 79 -164 128 -123 128 -70 c 2
 128 614 l 2
 128 649 78 688 68 688 c 0
 66 688 64 689 64 692 c 0
 64 695 66 696 68 696 c 2
EndSplineSet
Validated: 1
EndChar

StartChar: H
Encoding: 72 72 6
Width: 973
Flags: W
HStem: -172 8<56.0015 72.0545 292.392 307.999 658.001 674.054 894.392 909.999> 204 50<242 730> 688 8<64.0015 77.2505 294.688 311.999 666.001 679.25 896.688 913.999>
VStem: 128 114<-130.003 204 254 657.204> 730 114<-130.003 204 254 657.204>
LayerCount: 2
Fore
SplineSet
68 696 m 6
 308 696 l 6
 310 696 312 695 312 692 c 4
 312 689 310 688 308 688 c 4
 285 688 242 647 242 594 c 6
 242 254 l 5
 730 254 l 5
 730 614 l 6
 730 649 680 688 670 688 c 4
 668 688 666 689 666 692 c 4
 666 695 668 696 670 696 c 6
 910 696 l 6
 912 696 914 695 914 692 c 4
 914 689 912 688 910 688 c 4
 887 688 844 647 844 594 c 6
 844 -90 l 6
 844 -138 896 -164 906 -164 c 4
 908 -164 910 -165 910 -168 c 4
 910 -171 908 -172 906 -172 c 6
 662 -172 l 6
 660 -172 658 -171 658 -168 c 4
 658 -165 660 -164 662 -164 c 4
 681 -164 730 -123 730 -70 c 6
 730 204 l 5
 242 204 l 5
 242 -90 l 6
 242 -138 294 -164 304 -164 c 4
 306 -164 308 -165 308 -168 c 4
 308 -171 306 -172 304 -172 c 6
 60 -172 l 6
 58 -172 56 -171 56 -168 c 4
 56 -165 58 -164 60 -164 c 4
 79 -164 128 -123 128 -70 c 6
 128 614 l 6
 128 649 78 688 68 688 c 4
 66 688 64 689 64 692 c 4
 64 695 66 696 68 696 c 6
EndSplineSet
Validated: 1
EndChar

StartChar: G
Encoding: 71 71 7
Width: 972
Flags: W
HStem: -184 69<424.112 649.289> 207 8<671.001 684.158 900.767 917.999> 658 49<404.81 655.772>
VStem: 58 122<144.744 403.555> 734 115<-67 176.204>
LayerCount: 2
Fore
SplineSet
530 707 m 4
 718 707 788 660 792 658 c 4
 794 657 799 656 804 656 c 4
 809 656 814 654 816 656 c 5
 838 487 l 5
 838 487 752 658 528 658 c 4
 226 658 180 370 180 275 c 4
 180 53 346 -115 536 -115 c 4
 654 -115 734 -67 734 -67 c 5
 734 133 l 6
 734 168 685 207 675 207 c 4
 673 207 671 208 671 211 c 4
 671 214 673 215 675 215 c 6
 914 215 l 6
 916 215 918 214 918 211 c 4
 918 208 916 207 914 207 c 4
 891 207 849 166 849 113 c 6
 849 -57 l 6
 849 -78 693 -184 491 -184 c 4
 113 -184 58 162 58 264 c 4
 58 496 211 707 530 707 c 4
EndSplineSet
Validated: 1
EndChar

StartChar: F
Encoding: 70 70 8
Width: 649
Flags: W
HStem: -173 8<77.0015 90.1582 314.373 332.833> 268 48<255 528.764> 640.018 54.9824<256.165 519.945> 685 10<56.0015 83.5363>
VStem: 140 115<-124.478 268 316 635.165>
LayerCount: 2
Fore
SplineSet
61 695 m 6xd8
 577 695 l 5xd8
 595 530 l 5
 547.344726562 636.524414062 489.2109375 640.017578125 343.088867188 640.017578125 c 0xe8
 332.834960938 640.017578125 322.147460938 640 311 640 c 4
 267 640 255 633 255 606 c 6
 255 316 l 5
 447 316 l 6
 508 316 541 334 559 380 c 5
 559 208 l 5
 539 252 501 268 447 268 c 6
 255 268 l 5
 255 -34 l 6
 255 -131 308 -165 329 -165 c 4
 331 -165 333 -166 333 -168 c 4
 333 -170 331 -173 329 -173 c 6
 81 -173 l 6
 79 -173 77 -172 77 -169 c 4
 77 -166 79 -165 81 -165 c 4
 91 -165 140 -125 140 -90 c 6
 140 584 l 6
 140 623 113 685 61 685 c 4
 58 685 56 688 56 690 c 4
 56 693 58 695 61 695 c 6xd8
EndSplineSet
Validated: 524289
EndChar

StartChar: E
Encoding: 69 69 9
Width: 701
Flags: W
HStem: -172 55.6387<265.185 522.172> -172 10<64.0015 89.0297> 268 48<257 530.764> 640.018 54.9824<257.654 522.174> 685 10<58.0015 85.5363>
VStem: 142 115<-103.968 267.94 316 637.22>
LayerCount: 2
Fore
SplineSet
63 695 m 6x6c
 579 695 l 5x6c
 597 530 l 5
 549.344726562 636.524414062 494.703125 640.017578125 334.353515625 640.017578125 c 0
 323.100585938 640.017578125 311.328125 640 299 640 c 4
 263 640 257 633 257 606 c 6
 257 316 l 5
 449 316 l 6
 510 316 543 334 561 380 c 5
 561 208 l 5
 541 252 503 268 449 268 c 6
 257 268 l 5
 257 268 254.620117188 185.4296875 254.620117188 98.4091796875 c 0
 254.620117188 7.0361328125 257.244140625 -89.244140625 268 -100 c 4
 277 -109 321 -116 374 -116 c 4
 377 -116 384.194335938 -116.361328125 394.5 -116.361328125 c 0xb4
 446.02734375 -116.361328125 575.333007812 -107.333007812 647 1 c 5
 603 -172 l 5
 69 -172 l 6
 66 -172 64 -170 64 -167 c 4
 64 -165 66 -162 69 -162 c 4
 120 -156 146 -113 146 -71 c 6
 142 584 l 6
 142 623 115 685 63 685 c 4
 60 685 58 688 58 690 c 4
 58 693 60 695 63 695 c 6x6c
EndSplineSet
Validated: 524289
EndChar

StartChar: D
Encoding: 68 68 10
Width: 975
Flags: W
HStem: -172 57<268.351 528.535> -172 10<64.0015 89.0297> 642 53<262.726 522.526> 685 10<58.0015 85.5363>
VStem: 146 113<-95.8116 633.096> 791 125<117.88 408.345>
LayerCount: 2
Fore
SplineSet
63 695 m 6x5c
 473 695 l 6
 640 695 916 608 916 267 c 4
 916 -91 647 -172 356 -172 c 6xac
 69 -172 l 6
 66 -172 64 -170 64 -167 c 4
 64 -165 66 -162 69 -162 c 4
 120 -156 146 -113 146 -71 c 6
 142 584 l 6
 142 623 115 685 63 685 c 4
 60 685 58 688 58 690 c 4
 58 693 60 695 63 695 c 6x5c
327 642 m 4
 291 642 259 633 259 606 c 6
 259 -36 l 6
 259 -87 264 -92 268 -96 c 4
 275 -103 313 -115 356 -115 c 4
 683 -115 791 53 791 267 c 4
 791 582 549 642 327 642 c 4
EndSplineSet
Validated: 1
EndChar

StartChar: C
Encoding: 67 67 11
Width: 896
Flags: W
HStem: -184 69<423.975 662.903> 658 53<393.24 660.736>
VStem: 58 122<145.578 403.997>
LayerCount: 2
Fore
SplineSet
530 711 m 0
 750 711 816 656 816 656 c 1
 842 488 l 1
 842 488 764 658 528 658 c 0
 226 658 180 407 180 275 c 0
 180 53 346 -115 536 -115 c 0
 689 -115 769 -76 836 -48 c 1
 827 -87 l 1
 827 -87 705 -184 503 -184 c 0
 143 -184 58 145 58 264 c 0
 58 496 211 711 530 711 c 0
EndSplineSet
Validated: 1
EndChar

StartChar: B
Encoding: 66 66 12
Width: 766
Flags: W
HStem: -172 53.6348<269.869 493.28> -172 10<64.0015 89.0297> 289 53<255 418.726> 646 49<263.324 459.331> 685 10<58.0015 85.5363>
VStem: 146 108.885<-102.094 289 343.365 633.096> 530 112<433.858 584.819> 594 118<-19.151 158.057>
LayerCount: 2
Fore
SplineSet
63 695 m 6x6d
 439 695 l 6
 588 695 642 610 642 518 c 4x36
 642 385 527 350 470 326 c 4
 467 325 466 324 466 322 c 4
 466 320 468 319 470 318 c 4
 709 254 712 99 712 53 c 4
 712 -11 677 -172 429 -172 c 6xb5
 69 -172 l 6
 66 -172 64 -170 64 -167 c 4
 64 -165 66 -162 69 -162 c 4
 120 -156 146 -113 146 -71 c 6
 142 584 l 6
 142 623 115 685 63 685 c 4
 60 685 58 688 58 690 c 4
 58 693 60 695 63 695 c 6x6d
366 646 m 4
 296 646 257 635 257 608 c 4
 257 570 255 487 255 345 c 5
 271 344 291 342 294 342 c 4
 517 342 530 480 530 508 c 4
 530 624 426 646 366 646 c 4
369 289 m 6
 255 289 l 5
 255 248.547851562 254.884765625 207.9296875 254.884765625 169.024414062 c 0
 254.884765625 32.888671875 256.296875 -82.2802734375 269 -96 c 4
 287.243164062 -115.703125 324.65625 -118.365234375 357.924804688 -118.365234375 c 0
 370.247070312 -118.365234375 382 -118 392 -118 c 4
 547 -118 594 -16 594 83 c 4xa5
 594 217 447 289 369 289 c 6
EndSplineSet
Validated: 524289
EndChar

StartChar: A
Encoding: 65 65 13
Width: 934
Flags: W
HStem: -172 10<54.0022 76.2497 230.254 246.999 630.001 642.919 854.536 874.999> 142 51<304 547> 697 20G<432.723 448.471>
LayerCount: 2
Fore
SplineSet
440 717 m 5
 778 -81 l 6
 799 -131 856 -162 871 -162 c 4
 873 -162 875 -165 875 -167 c 4
 875 -169 874 -172 871 -172 c 6
 634 -172 l 6
 632 -172 630 -169 630 -167 c 4
 630 -165 632 -162 634 -162 c 4
 643 -162 663 -137 663 -120 c 4
 663 -92 659 -71 650 -49 c 6
 569 142 l 5
 285 142 l 5
 204 -80 l 5
 204 -80 199 -103 199 -117 c 4
 199 -145 238 -162 242 -162 c 4
 245 -162 247 -164 247 -167 c 4
 247 -170 245 -172 242 -172 c 6
 60 -172 l 6
 57 -172 54 -170 54 -167 c 4
 54 -164 57 -162 60 -162 c 4
 88 -162 140 -108 154 -69 c 6
 440 717 l 5
416 502 m 5
 304 193 l 5
 547 193 l 5
 416 502 l 5
EndSplineSet
Validated: 1
EndChar

StartChar: O
Encoding: 79 79 14
Width: 1015
Flags: W
HStem: -190.013 56.0127<406.796 640.2> 649 47.2539<386.812 604.639>
VStem: 58 134.021<122.5 389.607> 839.058 118.008<114.11 381.912>
LayerCount: 2
Fore
SplineSet
512.020507812 696 m 4
 810.98046875 687.090820312 957.065429688 456.708007812 957.065429688 245.4375 c 0
 957.065429688 243.290039062 957.05078125 241.143554688 957.020507812 239 c 4
 954.033203125 34.9013671875 799.388671875 -190.012695312 519.732421875 -190.012695312 c 0
 518.497070312 -190.012695312 517.259765625 -190.008789062 516.020507812 -190 c 4
 204.140625 -187.020507812 58 45.8232421875 58 259.640625 c 0
 58 261.094726562 58.0068359375 262.547851562 58.0205078125 264 c 4
 59.982421875 469.056640625 220.77734375 696.25390625 496.015625 696.25390625 c 0
 501.307617188 696.25390625 506.643554688 696.169921875 512.020507812 696 c 4
494.020507812 649 m 4
 275.642578125 649 191.715820312 435.1875 191.715820312 271.000976562 c 0
 191.715820312 265.26953125 191.818359375 259.598632812 192.020507812 254 c 4
 198.020507812 86 271.020507812 -134 523.020507812 -134 c 4
 760.0390625 -134 839.057617188 84.4697265625 839.057617188 248.825195312 c 0
 839.057617188 250.891601562 839.044921875 252.950195312 839.020507812 255 c 4
 837.020507812 430 725.020507812 649 494.020507812 649 c 4
EndSplineSet
Validated: 524289
EndChar

StartChar: P
Encoding: 80 80 15
Width: 767
Flags: W
HStem: -172 10<60.0015 87.1426 299.541 322.999> 167.444 53.5557<251 455.62> 644 51<253.911 458.138> 685 10<60.0015 85.0297>
VStem: 138 113<-132.127 167 221 634.324> 590 122.018<350.738 534.531>
LayerCount: 2
Fore
SplineSet
65 695 m 6xdc
 425 695 l 6xec
 670.046875 695 712.017578125 537.811523438 712.017578125 472.327148438 c 0
 712.017578125 471.538085938 712.01171875 470.76171875 712 470 c 4
 707.083984375 197.638671875 475.938476562 166.974609375 300.893554688 166.974609375 c 0
 297.912109375 166.974609375 294.947265625 166.983398438 292 167 c 4
 290 167 279.555664062 167.444335938 268.07421875 167.444335938 c 0
 262.333007812 167.444335938 256.333007812 167.333007812 251 167 c 5
 251 25 253 -47 253 -85 c 4
 253 -112 283 -162 319 -162 c 4
 321 -162 323 -164 323 -167 c 4
 323 -170 321 -172 319 -172 c 6
 65 -172 l 6
 62 -172 60 -170 60 -167 c 4
 60 -165 62 -162 65 -162 c 4
 117 -162 138 -99 138 -60 c 6
 142 594 l 6
 142 636 116 679 65 685 c 4
 62 685 60 688 60 690 c 4
 60 693 62 695 65 695 c 6xdc
326 644 m 4
 304 644 251 638 251 613 c 4
 251 591 251 403 251 221 c 5
 365 221 l 6
 443 221 590 283 590 441 c 4
 590 498 568 644 326 644 c 4
EndSplineSet
Validated: 524289
EndChar

StartChar: Q
Encoding: 81 81 16
Width: 1021
Flags: W
HStem: -261 41<650.304 800.035> -146 33<141.357 248.076> 649 47.2539<394.816 606.784>
VStem: 58 128.012<122.91 389.607> 841.049 122.007<116.679 381.912>
LayerCount: 2
Fore
SplineSet
514.01171875 696 m 4
 813.05078125 687.087890625 963.055664062 456.5859375 963.055664062 245.271484375 c 0
 963.055664062 243.178710938 963.041015625 241.087890625 963.01171875 239 c 4
 961.01171875 53 829.01171875 -148 595.01171875 -183 c 5
 658.01171875 -202 695.01171875 -220 743.01171875 -220 c 4
 764.01171875 -220 803.01171875 -212 803.01171875 -212 c 5
 802.01171875 -240 l 5
 802.01171875 -240 731.01171875 -261 693.01171875 -261 c 4
 514.01171875 -259 450.01171875 -146 204.01171875 -146 c 4
 181.01171875 -146 141.01171875 -154 141.01171875 -154 c 5
 141.01171875 -125 l 5
 148.01171875 -125 179.01171875 -116 252.01171875 -113 c 5
 121.04296875 -26.6796875 58 120.676757812 58 260.6953125 c 0
 58 261.796875 58.00390625 262.8984375 58.01171875 264 c 4
 59.9736328125 469.056640625 206.329101562 696.25390625 497.078125 696.25390625 c 0
 502.668945312 696.25390625 508.313476562 696.169921875 514.01171875 696 c 4
496.01171875 649 m 4
 270.01171875 649 186.01171875 420 186.01171875 254 c 4
 186.01171875 82 273.01171875 -138 525.01171875 -138 c 4
 762.030273438 -138 841.048828125 84.37109375 841.048828125 248.823242188 c 0
 841.048828125 250.891601562 841.036132812 252.950195312 841.01171875 255 c 4
 839.01171875 430 727.01171875 649 496.01171875 649 c 4
EndSplineSet
Validated: 524289
EndChar

StartChar: R
Encoding: 82 82 17
Width: 872
Flags: W
HStem: -172 10<60.0015 87.1426 299.541 322.999 785.482 814.998> 231 52<251 329.427> 644 51<253.911 449.158> 685 10<60.0015 85.0297>
VStem: 142 109<-125.625 231 283 634.324> 547 127<396.248 561.175>
LayerCount: 2
Fore
SplineSet
65 695 m 2xdc
 425 695 l 2xec
 617 695 674 551 674 487 c 0
 674 359 569 284 445 251 c 0
 445 251 440 247 440 242 c 0
 440 237 446 233 446 233 c 0
 467 222 493 201 523 164 c 0
 637 23 726 -162 809 -162 c 0
 812 -162 815 -164 815 -167 c 0
 815 -170 812 -172 809 -172 c 2
 641 -172 l 1
 377 170 l 1
 377 170 325 231 288 231 c 0
 285 231 283 231 282 231 c 0
 275 231 263 232 251 231 c 1
 251 89 253 -47 253 -85 c 0
 253 -112 283 -162 319 -162 c 0
 321 -162 323 -164 323 -167 c 0
 323 -170 321 -172 319 -172 c 2
 65 -172 l 2
 62 -172 60 -170 60 -167 c 0
 60 -165 62 -162 65 -162 c 0
 117 -162 138 -99 138 -60 c 2
 142 594 l 2
 142 636 116 679 65 685 c 0
 62 685 60 688 60 690 c 0
 60 693 62 695 65 695 c 2xdc
326 644 m 0
 304 644 251 638 251 613 c 0
 251 591 251 465 251 283 c 1
 309 283 l 2
 457 283 547 356 547 479 c 0
 547 536 523 644 326 644 c 0
EndSplineSet
Validated: 1
EndChar

StartChar: S
Encoding: 83 83 18
Width: 646
Flags: W
HStem: -180 50<204.96 393.857> 668 51<257.197 440.37>
VStem: 80 116<458.805 597.36> 480.132 111.868<-40.0144 109.523>
LayerCount: 2
Fore
SplineSet
554 673 m 5
 552 521 l 5
 552 521 506 668 344 668 c 4
 199 668 196 546 196 536 c 4
 196 473 220 428 361 346 c 4
 522 253 592 195 592 55 c 4
 592 -85 469 -180 296 -180 c 4
 138 -180 66 -114 66 -114 c 5
 59 39 l 5
 59 39 140 -130 298 -130 c 4
 456 -130 480 1 480 31 c 4
 480 34.1240234375 480.131835938 37.6845703125 480.131835938 41.69140625 c 0
 480.131835938 77.4423828125 469.620117188 148.697265625 261 262 c 4
 144 325 80 427 80 512 c 4
 80 628 188 719 338 719 c 4
 468 719 554 673 554 673 c 5
EndSplineSet
Validated: 524289
EndChar

StartChar: T
Encoding: 84 84 19
Width: 821
Flags: W
HStem: -172 8<286.001 302.054 521.656 537.999> 649 47<136.8 358 466 702.146>
VStem: 358 108<-130.003 649>
LayerCount: 2
Fore
SplineSet
86 696 m 1
 761 696 l 1
 746 549 l 1
 727 615 711 649 604 649 c 2
 466 649 l 1
 466 -90 l 2
 466 -138 524 -164 534 -164 c 0
 536 -164 538 -165 538 -168 c 0
 538 -171 536 -172 534 -172 c 2
 290 -172 l 2
 288 -172 286 -171 286 -168 c 0
 286 -165 288 -164 290 -164 c 0
 309 -164 358 -123 358 -70 c 2
 358 649 l 1
 227 649 l 2
 187 649 100 630 55 553 c 1
 86 696 l 1
EndSplineSet
Validated: 1
EndChar

StartChar: U
Encoding: 85 85 20
Width: 961
Flags: W
HStem: -187 69<359.047 567.504> -172 8<882.392 897.999> 688 8<56.0015 69.2505 286.688 303.999 654.001 667.25 884.688 901.999>
VStem: 120 114<9.89994 657.204> 718 114<-140.032 -85 -24.9633 657.204>
LayerCount: 2
Fore
SplineSet
60 696 m 6xb8
 300 696 l 6
 302 696 304 695 304 692 c 4
 304 689 302 688 300 688 c 4
 277 688 234 647 234 594 c 6
 234 142 l 6
 234 -60 342 -118 484 -118 c 4xb8
 651 -118 707 -17 718 14 c 5
 718 614 l 6
 718 649 668 688 658 688 c 4
 656 688 654 689 654 692 c 4
 654 695 656 696 658 696 c 6
 898 696 l 6
 900 696 902 695 902 692 c 4
 902 689 900 688 898 688 c 4
 875 688 832 647 832 594 c 6
 832 -90 l 6
 832 -138 884 -164 894 -164 c 4
 896 -164 898 -165 898 -168 c 4
 898 -171 896 -172 894 -172 c 6
 717 -172 l 5x78
 717 -85 l 5
 702 -99 601 -187 427 -187 c 4
 171 -187 120 -31 120 94 c 6
 120 614 l 6
 120 649 70 688 60 688 c 4
 58 688 56 689 56 692 c 4
 56 695 58 696 60 696 c 6xb8
EndSplineSet
Validated: 1
EndChar

StartChar: V
Encoding: 86 86 21
Width: 954
Flags: W
HStem: 688 8<59.0015 75.5818 302.734 316.999 703.001 720.132 877.28 896.999>
LayerCount: 2
Fore
SplineSet
63 696 m 6
 313 696 l 6
 315 696 317 695 317 692 c 4
 317 689 315 688 313 688 c 4
 302 688 277 666 277 647 c 4
 277 627 281 611 286 598 c 6
 518 25 l 5
 744 614 l 6
 745.587890625 618.412109375 746.3359375 623.571289062 746.3359375 629.076171875 c 0
 746.3359375 654.768554688 730.05859375 688 707 688 c 4
 705 688 703 689 703 692 c 4
 703 695 705 696 707 696 c 6
 893 696 l 6
 895 696 897 695 897 692 c 4
 897 689 895 688 893 688 c 4
 870 688 831 658 809 604 c 6
 546 -46 l 5
 487 -192 l 5
 161 614 l 6
 143 658 73 688 63 688 c 4
 61 688 59 689 59 692 c 4
 59 695 61 696 63 696 c 6
EndSplineSet
Validated: 524289
EndChar

StartChar: W
Encoding: 87 87 22
Width: 1314
Flags: W
HStem: 686 8<58.0015 82.0549 301.734 315.999 517.001 545.817 752.143 769.999 1058 1074.49 1238.15 1256>
VStem: 621.815 97.1846<553.422 621.849>
LayerCount: 2
Fore
SplineSet
62 694 m 6
 312 694 l 6
 314 694 316 693 316 690 c 4
 316 687 314 686 312 686 c 4
 301 686 276 664 276 645 c 4
 276 625 281 610 285 596 c 4
 337 414 396 233 450 51 c 5
 619 527 l 6
 620.6953125 531.408203125 621.815429688 537.76953125 621.815429688 545.891601562 c 0
 621.815429688 561.72265625 617.557617188 584.240234375 605 612 c 4
 585 655 567 686 521 686 c 4
 519 686 517 687 517 690 c 4
 517 693 519 694 521 694 c 6
 766 694 l 6
 768 694 770 693 770 690 c 4
 770 687 768 686 766 686 c 4
 755 686 719 670 719 641 c 4
 719 626 724 603 726 596 c 6
 892 51 l 5
 1091 611 l 6
 1093.14550781 616.958007812 1094.2109375 624.336914062 1094.2109375 632.120117188 c 0
 1094.2109375 656.993164062 1083.32617188 686 1062 686 c 4
 1060 686 1058 687 1058 690 c 4
 1058 693 1060 694 1062 694 c 6
 1252 694 l 6
 1254 694 1256 693 1256 690 c 4
 1256 687 1254 686 1252 686 c 4
 1229 686 1159 638 1139 583 c 6
 856 -218 l 5
 648 461 l 5
 411 -206 l 5
 174 569 l 6
 138 685 65 686 62 686 c 4
 60 686 58 687 58 690 c 4
 58 693 60 694 62 694 c 6
EndSplineSet
Validated: 524289
EndChar

StartChar: X
Encoding: 88 88 23
Width: 944
Flags: W
HStem: -172 8<56.0015 78.2731 229.594 249.999 626.001 649.625 860.194 874.999> 688 8<78.0015 93.5955 316.821 335.999 690.001 705.474 859.161 883.999>
LayerCount: 2
Fore
SplineSet
82 696 m 6
 332 696 l 6
 334 696 336 695 336 692 c 4
 336 689 334 688 332 688 c 4
 321 688 297 678 297 658 c 4
 297 646 317 612 325 600 c 6
 501 328 l 5
 699 621 l 6
 706.758789062 632.37890625 712.64453125 649.912109375 712.64453125 664.188476562 c 0
 712.64453125 677.512695312 707.517578125 688 694 688 c 4
 692 688 690 689 690 692 c 4
 690 695 692 696 694 696 c 6
 880 696 l 6
 882 696 884 695 884 692 c 4
 884 689 882 688 880 688 c 4
 857 688 788 663 755 615 c 6
 531 283 l 5
 770 -85 l 6
 796 -125 861 -164 871 -164 c 4
 873 -164 875 -165 875 -168 c 4
 875 -171 873 -172 871 -172 c 6
 630 -172 l 6
 628 -172 626 -171 626 -168 c 4
 626 -165 628 -164 630 -164 c 4
 641 -164 661 -161 661 -142 c 4
 661 -128 634 -86 626 -74 c 6
 442 210 l 5
 222 -115 l 6
 217.432617188 -121.69921875 215.275390625 -128.862304688 215.275390625 -135.584960938 c 0
 215.275390625 -150.940429688 226.526367188 -164 246 -164 c 4
 248 -164 250 -165 250 -168 c 4
 250 -171 248 -172 246 -172 c 6
 60 -172 l 6
 58 -172 56 -171 56 -168 c 4
 56 -165 58 -164 60 -164 c 4
 83 -164 145 -133 178 -85 c 6
 410 259 l 5
 180 614 l 6
 152 658 92 688 82 688 c 4
 80 688 78 689 78 692 c 4
 78 695 80 696 82 696 c 6
EndSplineSet
Validated: 524289
EndChar

StartChar: Y
Encoding: 89 89 24
Width: 933
Flags: W
HStem: -172 8<332.001 348.054 568.392 583.999> 686 8<60.0015 76.4516 290.857 309.999 699.001 714.136 849.693 873.999>
VStem: 404 114<-130.003 221>
LayerCount: 2
Fore
SplineSet
64 694 m 6
 306 694 l 6
 308 694 310 693 310 690 c 4
 310 687 308 686 306 686 c 4
 295 686 280 681 280 658 c 4
 280 640 300 607 308 595 c 6
 500 288 l 5
 707 619 l 6
 714 630 721 647 721 661 c 4
 721 674 717 686 703 686 c 4
 701 686 699 687 699 690 c 4
 699 693 701 694 703 694 c 6
 870 694 l 6
 872 694 874 693 874 690 c 4
 874 687 872 686 870 686 c 4
 847 686 795 663 764 613 c 6
 518 221 l 5
 518 -90 l 6
 518 -138 570 -164 580 -164 c 4
 582 -164 584 -165 584 -168 c 4
 584 -171 582 -172 580 -172 c 6
 336 -172 l 6
 334 -172 332 -171 332 -168 c 4
 332 -165 334 -164 336 -164 c 4
 355 -164 404 -123 404 -70 c 6
 404 237 l 5
 395 250 l 5
 170 611 l 6
 142 655 74 686 64 686 c 4
 62 686 60 687 60 690 c 4
 60 693 62 694 64 694 c 6
EndSplineSet
Validated: 1
EndChar

StartChar: Z
Encoding: 90 90 25
Width: 969
Flags: W
HStem: -172 56<258 757.511> 644 56<222.813 701>
LayerCount: 2
Fore
SplineSet
904 696 m 5
 258 -116 l 5
 614 -116 l 6
 744 -116 800 -91 915 17 c 5
 836.00390625 -179.989257812 l 5
 836.009765625 -179.974609375 836.017578125 -179.943359375 836.017578125 -179.8984375 c 0
 836.017578125 -178.96875 832.533203125 -172 728 -172 c 6
 60 -172 l 6
 59.3330078125 -172 58.6669921875 -172.111328125 58.07421875 -172.111328125 c 0
 56.888671875 -172.111328125 56 -171.666992188 56 -169 c 4
 56 -167 60 -162 60 -162 c 5
 701 644 l 5
 341 644 l 6
 180 644 92 538 92 538 c 5
 167 700 l 5
 290 696 904 696 904 696 c 5
EndSplineSet
Validated: 524289
EndChar

StartChar: one
Encoding: 49 49 26
Width: 371
Flags: W
HStem: -172 8<69.0015 85.0545 309.392 324.999> 629 19<43.0454 80.4792> 676 20G<171.917 260>
VStem: 141 118<-130.003 606.51>
LayerCount: 2
Fore
SplineSet
50 648 m 2
 259 696 l 1
 261 640.333007812 261.666992188 565.888671875 261.666992188 480.888671875 c 0
 261.666992188 310.888671875 259 98.6669921875 259 -90 c 0
 259 -138 311 -164 321 -164 c 0
 323 -164 325 -165 325 -168 c 0
 325 -171 323 -172 321 -172 c 2
 73 -172 l 2
 71 -172 69 -171 69 -168 c 0
 69 -165 71 -164 73 -164 c 0
 92 -164 141 -123 141 -70 c 2
 139 534 l 2
 139 584 132 629 49 629 c 0
 47 629 43 636 43 639 c 0
 43 642 48 647 50 648 c 2
EndSplineSet
Validated: 524289
EndChar

StartChar: two
Encoding: 50 50 27
Width: 654
Flags: W
HStem: -176.242 59.7422<150.664 504.381> 628.5 71.5<194.952 389.569>
VStem: 475.607 119.494<357.94 539.772>
LayerCount: 2
Fore
SplineSet
54 -104.557617188 m 1
 369.248046875 221.891601562 l 1
 369.248046875 221.891601562 475.607421875 332.029296875 475.607421875 457.78515625 c 0
 475.607421875 512.814453125 446.243164062 628.5 290.743164062 628.5 c 0
 135.243164062 628.5 62.2431640625 529 62.2431640625 529 c 1
 64.2431640625 595.5 l 1
 64.2431640625 595.5 150.46484375 700 315.243164062 700 c 0
 531.993164062 700 591.852539062 561.708007812 594.993164062 445.5 c 0
 595.065429688 442.80859375 595.1015625 440.140625 595.1015625 437.495117188 c 0
 595.1015625 312.85546875 515.557617188 239.064453125 469.493164062 193 c 0
 357.493164062 81 150.6640625 -116.5 150.6640625 -116.5 c 1
 418.834960938 -116.5 l 2
 516.415039062 -116.5 601.243164062 -27.75 601.243164062 -27.75 c 1
 555.975585938 -176.2421875 l 1
 496.578125 -172 54 -172 54 -172 c 1
 54 -104.557617188 l 1
EndSplineSet
Validated: 524289
EndChar

StartChar: three
Encoding: 51 51 28
Width: 627
Flags: W
HStem: -188 53<180.875 351.734> 315 40<329 353.161> 627 61<156.55 406>
VStem: 456 120<-23.1981 193.356>
LayerCount: 2
Fore
SplineSet
114 688 m 1
 182.79296875 686.140625 247.913085938 685.361328125 312.372070312 685.361328125 c 0
 386.590820312 685.361328125 459.93359375 686.39453125 537 688 c 1
 329 355 l 1
 359 355 576 320 576 94 c 0
 576 -132 379 -188 291 -188 c 0
 132 -188 49 -74 49 -74 c 1
 65 -28 l 1
 65 -28 163 -135 263 -135 c 0
 339 -135 456 -87 456 71 c 0
 456 229 366 315 294 315 c 2
 212 315 l 1
 406 626 l 1
 270 627 l 2
 190 627 85 588 70 539 c 0
 68.3486328125 533.604492188 67.59375 531.204101562 67.55859375 531.204101562 c 0
 67.55859375 531.204101562 67.5576171875 531.205078125 67.5576171875 531.208007812 c 0
 67.5576171875 532.143554688 114 688 114 688 c 1
EndSplineSet
Validated: 524289
EndChar

StartChar: four
Encoding: 52 52 29
Width: 673
Flags: W
HStem: -172 8<326.238 342.137 566.08 581.713> 53 61.1055<144.039 396.979 517.09 625.883> 676 20G<429.01 517.341>
VStem: 397.624 118.7<-129.597 53 114.105 501.512>
LayerCount: 2
Fore
SplineSet
395.623046875 501.51171875 m 1
 144.0390625 114.10546875 l 1
 396.978515625 114.10546875 l 1
 395.623046875 501.51171875 l 1
516.32421875 696 m 1
 518.358398438 640.321289062 519.036132812 565.85546875 519.036132812 480.840820312 c 0
 519.036132812 370.381835938 517.891601562 242.114257812 517.08984375 114.10546875 c 1
 626.697265625 114.10546875 l 1
 625.8828125 53 l 1
 516.73828125 53 l 1
 516.490234375 4.6357421875 516.32421875 -43.2763671875 516.32421875 -89.75 c 0
 516.32421875 -137.256835938 567.461914062 -164 577.71484375 -164 c 0
 579.217773438 -164 581.71484375 -165.426757812 581.71484375 -168 c 0
 581.71484375 -170.635742188 579.7890625 -172 577.71484375 -172 c 2
 330.236328125 -172 l 2
 328.162109375 -172 326.236328125 -170.635742188 326.236328125 -168 c 0
 326.236328125 -165.426757812 328.732421875 -164 330.236328125 -164 c 0
 348.938476562 -164 397.624023438 -122.418945312 397.624023438 -70.044921875 c 0
 397.624023438 -69.947265625 397.623046875 -69.8486328125 397.623046875 -69.75 c 2
 397.193359375 53 l 1
 52.08203125 53 l 1
 50 114.10546875 l 1
 412.43359375 672.203125 l 1
 516.32421875 696 l 1
EndSplineSet
Validated: 524289
EndChar

StartChar: five
Encoding: 53 53 30
Width: 635
Flags: W
HStem: -185 54<183.367 365.226> 316 53<182.423 359.102> 628 60<225 351>
VStem: 462 122<-6.32738 202.022>
LayerCount: 2
Fore
SplineSet
544 536 m 1
 492 626 351 628 351 628 c 1
 225 628 l 1
 182 354 l 1
 182 354 229 369 271 369 c 0
 423 369 584 286 584 103 c 0
 584 -80 431 -185 271 -185 c 0
 158 -185 48 -73 48 -73 c 1
 64 -26 l 1
 64 -26 161 -131 271 -131 c 0
 381 -131 462 -60 462 80 c 0
 462 220 395 316 271 316 c 0
 173 316 78 259 78 259 c 1
 146 688 l 1
 494 688 l 1
 544 536 l 1
EndSplineSet
Validated: 1
EndChar

StartChar: six
Encoding: 54 54 31
Width: 706
Flags: W
HStem: -182 49<285.728 458.617> 314 50<277.146 448.847> 652 50<370.15 578.007>
VStem: 56 123<48.8778 295.455 301 375.514> 539.019 116.981<-1.59302 201.96>
LayerCount: 2
Fore
SplineSet
430 702 m 0
 507 702 578 685 578 685 c 1
 580 629 l 1
 580 629 556 652 462 652 c 0
 319 652 184 508 184 301 c 1
 184 301 254 364 386 364 c 0
 588 364 656 201 656 95 c 0
 656 22 598 -182 374 -182 c 0
 150 -182 56 4 56 203 c 0
 56 523 246 702 430 702 c 0
368 314 m 0
 235 314 179 208 179 115 c 0
 179 22 217 -133 368 -133 c 0
 519 -133 538 -11 539 85 c 0
 539.012695312 86.1904296875 539.018554688 87.3857421875 539.018554688 88.5869140625 c 0
 539.018554688 184.27734375 499.3515625 314 368 314 c 0
EndSplineSet
Validated: 524289
EndChar

StartChar: seven
Encoding: 55 55 32
Width: 665
Flags: W
HStem: -172 21G<187 332> -172 21G<187 332> 628 60<122.342 504>
VStem: 186.963 145.037<-171 -102.003>
LayerCount: 2
Fore
SplineSet
187 -171 m 1xb0
 186.975585938 -170.666015625 186.962890625 -170.3046875 186.962890625 -169.91796875 c 0
 186.962890625 -107.802734375 504 628 504 628 c 1
 210 628 l 2
 107 628 44 541 44 541 c 1
 87 688 l 1
 622 688 l 1
 622 688 332 39 332 -172 c 1
 187 -171 l 1xb0
EndSplineSet
Validated: 524289
EndChar

StartChar: eight
Encoding: 56 56 33
Width: 615
Flags: W
HStem: -172 49.9619<228.046 383.665> 655 54<223.986 398.741>
VStem: 52 89<-39.1122 139.887> 76 98<483.307 592.653> 454 82<450.192 603.405> 460 106<-26.4209 103.38>
LayerCount: 2
Fore
SplineSet
303 709 m 4xd0
 500 709 536 570 536 529 c 4xd8
 536 398 397 320 392 318 c 4
 390 317 388 314 388 311 c 4
 388 308 394 306 395 305 c 6
 395 305 566 215 566 71 c 4
 566 -41 484 -172 296 -172 c 4
 120 -172 52 -65 52 46 c 4xe4
 52 151 94 208 220 285 c 5
 186 317 76 392 76 505 c 4
 76 618 175 709 303 709 c 4xd0
304 655 m 4
 233 655 174 613 174 547 c 4
 174 449 339 340 345 339 c 5
 345 339 454 423 454 538 c 4
 454 635 367 655 304 655 c 4
262 257 m 5
 215 209 141 164 141 41 c 4
 141 -62 226 -120 302 -122 c 4
 302.869140625 -122.024414062 303.79296875 -122.038085938 304.767578125 -122.038085938 c 0
 343.034179688 -122.038085938 460 -101.8203125 460 23 c 4xe4
 460 144 330 203 262 257 c 5
EndSplineSet
Validated: 524289
EndChar

StartChar: nine
Encoding: 57 57 34
Width: 703
Flags: W
HStem: -177 50<125.993 333.85> 160 51<255.653 427.267> 658 48<245.883 418.711>
VStem: 48 117.981<322.367 525.593> 525 123<148.529 223 229.545 476.035>
LayerCount: 2
Fore
SplineSet
274 -177 m 0
 197 -177 126 -160 126 -160 c 1
 124 -104 l 1
 124 -104 148 -127 242 -127 c 0
 385 -127 520 16 520 223 c 1
 520 223 450 160 318 160 c 0
 116 160 48 323 48 429 c 0
 48 502 106 706 330 706 c 0
 554 706 648 521 648 322 c 0
 648 2 458 -177 274 -177 c 0
337 211 m 0
 470 211 525 317 525 410 c 0
 525 503 488 658 337 658 c 0
 186 658 167 535 166 439 c 0
 165.987304688 437.809570312 165.981445312 436.614257812 165.981445312 435.4140625 c 0
 165.981445312 339.748046875 205.6484375 211 337 211 c 0
EndSplineSet
Validated: 524289
EndChar

StartChar: zero
Encoding: 48 48 35
Width: 740
Flags: W
HStem: -172 50<294.624 451.378> 656 50<302.864 440.55>
VStem: 55 116<102.76 413.887> 568 117<101.002 416.034>
LayerCount: 2
Fore
SplineSet
377 706 m 0
 582 706 685 446 685 256 c 0
 685 66 585 -172 377 -172 c 0
 169 -172 55 49 55 256 c 0
 55 463 172 706 377 706 c 0
374 656 m 0
 229 656 171 441 171 257 c 0
 171 73 210 -122 374 -122 c 0
 538 -122 568 88 568 257 c 0
 568 426 519 656 374 656 c 0
EndSplineSet
Validated: 1
EndChar

StartChar: comma
Encoding: 44 44 36
Width: 250
Flags: W
HStem: -250 28<59 81.567>
VStem: 107 80<-186.525 -90>
LayerCount: 2
Fore
SplineSet
122 -38 m 4
 167 -38 187 -73 187 -107 c 4
 187 -172 143 -250 59 -250 c 5
 59 -222 l 5
 79 -222 107 -184 107 -168 c 4
 107 -160 102 -159 96 -156 c 4
 74 -146 60 -124 60 -100 c 4
 60 -66 88 -38 122 -38 c 4
EndSplineSet
Validated: 1
EndChar

StartChar: period
Encoding: 46 46 37
Width: 247
Flags: W
HStem: -162 124<75.2003 168.8>
VStem: 60 124<-146.8 -53.2003>
LayerCount: 2
Fore
SplineSet
184 -100 m 4
 184 -134 156 -162 122 -162 c 4
 88 -162 60 -134 60 -100 c 4
 60 -66 88 -38 122 -38 c 4
 156 -38 184 -66 184 -100 c 4
EndSplineSet
Validated: 1
EndChar

StartChar: colon
Encoding: 58 58 38
Width: 253
Flags: W
HStem: -162 124<77.2003 170.8> 208 124<77.2003 170.8>
VStem: 62 124<-146.8 -53.2003 223.2 316.8>
LayerCount: 2
Fore
SplineSet
124 332 m 0
 158 332 186 304 186 270 c 0
 186 236 158 208 124 208 c 0
 90 208 62 236 62 270 c 0
 62 304 90 332 124 332 c 0
124 -38 m 0
 158 -38 186 -66 186 -100 c 0
 186 -134 158 -162 124 -162 c 0
 90 -162 62 -134 62 -100 c 0
 62 -66 90 -38 124 -38 c 0
EndSplineSet
Validated: 1
EndChar

StartChar: semicolon
Encoding: 59 59 39
Width: 257
Flags: W
HStem: -244 27<64 86.567> 208 124<76.2003 169.8>
VStem: 61 124<223.2 316.8> 112 80<-180.632 -84>
LayerCount: 2
Fore
SplineSet
123 332 m 0xe0
 157 332 185 304 185 270 c 0
 185 236 157 208 123 208 c 0
 89 208 61 236 61 270 c 0
 61 304 89 332 123 332 c 0xe0
127 -32 m 0
 172 -32 192 -67 192 -101 c 0
 192 -166 148 -244 64 -244 c 1
 64 -217 l 1
 84 -217 112 -178 112 -162 c 0xd0
 112 -154 107 -153 101 -150 c 0
 79 -140 65 -118 65 -94 c 0
 65 -60 93 -32 127 -32 c 0
EndSplineSet
Validated: 1
EndChar

StartChar: exclam
Encoding: 33 33 40
Width: 247
Flags: W
HStem: -172 124<75.2003 168.8> 669 20G<106 138>
VStem: 60 124<-156.8 -63.2003 512.895 672.5>
LayerCount: 2
Fore
SplineSet
184 -110 m 4
 184 -144 156 -172 122 -172 c 4
 88 -172 60 -144 60 -110 c 4
 60 -76 88 -48 122 -48 c 4
 156 -48 184 -76 184 -110 c 4
122 689 m 4
 154 689 179 664 179 632 c 4
 179 630 179 628 179 626 c 6
 150 12 l 5
 98 12 l 5
 65 626 l 6
 65 628 65 630 65 632 c 4
 65 664 90 689 122 689 c 4
EndSplineSet
Validated: 1
EndChar

StartChar: quotesingle
Encoding: 39 39 41
Width: 251
Flags: W
HStem: 484 28<61 83.567> 676 20G<107 146.5>
VStem: 109 80<547.475 644>
LayerCount: 2
Fore
SplineSet
124 696 m 4
 169 696 189 661 189 627 c 4
 189 562 145 484 61 484 c 5
 61 512 l 5
 81 512 109 550 109 566 c 4
 109 574 104 575 98 578 c 4
 76 588 62 610 62 634 c 4
 62 668 90 696 124 696 c 4
EndSplineSet
Validated: 1
EndChar

StartChar: question
Encoding: 63 63 42
Width: 616
Flags: W
HStem: -172 124<203.2 296.8> 643 53<190.19 362.479>
VStem: 188 124<-156.8 -63.2003> 226 52<12 142.824> 452 115<373.734 543.887>
LayerCount: 2
Fore
SplineSet
282 696 m 4xd8
 365 696 567 659 567 464 c 4
 567 258 332 167 283 134 c 5
 278 12 l 5
 226 12 l 5
 218 164 l 5
 218 164 452 299 452 458 c 4
 452 528 397 643 288 643 c 4
 138 643 46 502 46 502 c 5
 63 639 l 5
 133 672 199 696 282 696 c 4xd8
250 -48 m 4
 284 -48 312 -76 312 -110 c 4
 312 -144 284 -172 250 -172 c 4
 216 -172 188 -144 188 -110 c 4xe8
 188 -76 216 -48 250 -48 c 4
EndSplineSet
Validated: 1
EndChar

StartChar: hyphen
Encoding: 45 45 43
Width: 316
Flags: W
HStem: 233 43<61 253>
VStem: 61 192<233 276>
LayerCount: 2
Fore
SplineSet
61 233 m 5
 61 276 l 5
 253 276 l 5
 253 233 l 5
 61 233 l 5
EndSplineSet
Validated: 1
EndChar

StartChar: parenleft
Encoding: 40 40 44
Width: 327
Flags: W
VStem: 56 113.998<83.8173 414.168>
LayerCount: 2
Fore
SplineSet
284.00390625 726 m 4
 284.255859375 725.748046875 284.377929688 725.3984375 284.377929688 724.947265625 c 4
 284.377929688 711.111328125 169.998046875 601.05078125 169.998046875 239.56640625 c 4
 169.998046875 238.048828125 170 236.526367188 170.00390625 235 c 4
 170.97265625 -130.375976562 274.32421875 -210.208984375 274.32421875 -221.157226562 c 4
 274.32421875 -221.505859375 274.219726562 -221.784179688 274.00390625 -222 c 4
 273.84375 -222.16015625 273.578125 -222.240234375 273.209960938 -222.240234375 c 4
 257.477539062 -222.240234375 56 -76.107421875 56 247.65234375 c 4
 56 248.43359375 56.001953125 249.216796875 56.00390625 250 c 4
 56.9755859375 573.708984375 263.0078125 726.376953125 282.771484375 726.376953125 c 4
 283.338867188 726.376953125 283.752929688 726.250976562 284.00390625 726 c 4
EndSplineSet
Validated: 524289
EndChar

StartChar: parenright
Encoding: 41 41 45
Width: 325
Flags: W
VStem: 156.38 113.998<83.8173 414.168>
LayerCount: 2
Fore
SplineSet
42.3740234375 726 m 4
 42.625 726.250976562 43.0390625 726.376953125 43.6064453125 726.376953125 c 4
 63.3701171875 726.376953125 269.40234375 573.708984375 270.374023438 250 c 4
 270.375976562 249.216796875 270.377929688 248.43359375 270.377929688 247.65234375 c 4
 270.377929688 -76.107421875 68.900390625 -222.240234375 53.16796875 -222.240234375 c 4
 52.7998046875 -222.240234375 52.5341796875 -222.16015625 52.3740234375 -222 c 4
 52.158203125 -221.784179688 52.0537109375 -221.505859375 52.0537109375 -221.157226562 c 4
 52.0537109375 -210.208984375 155.405273438 -130.375976562 156.374023438 235 c 4
 156.377929688 236.526367188 156.379882812 238.048828125 156.379882812 239.56640625 c 4
 156.379882812 601.05078125 42 711.111328125 42 724.947265625 c 4
 42 725.3984375 42.1220703125 725.748046875 42.3740234375 726 c 4
EndSplineSet
Validated: 524289
EndChar

StartChar: ampersand
Encoding: 38 38 46
Width: 865
Flags: W
HStem: -178 80<255.881 415.193 659.5 790> 314 15<537.012 558.72 726.559 756.392> 656 49<326.45 452.972>
VStem: 51 105<6.15271 146.322> 189 105<450.079 595.411> 482 91<491.889 627.707> 602 155<209.5 326>
LayerCount: 2
Fore
SplineSet
392 705 m 4
 485 705 573 660 573 546 c 4
 573 422 383 348 380 346 c 4
 376 343 374 341 374 338 c 4
 374 337 374 336 374 335 c 4
 374 334 552 67 574 67 c 4
 591 67 602 186 602 233 c 4
 602 277 566 306 544 314 c 4
 541 315 537 317 537 321 c 4
 537 325 538 329 544 329 c 6
 746 329 l 6
 753 329 757 328 757 324 c 4
 757 320 753 317 749 316 c 4
 696 302 677 258 669 218 c 4
 660 174 640 105 605 43 c 4
 604 41 600 37 600 33 c 4
 600 30 601 29 603 27 c 4
 652 -27 734 -104 779 -104 c 4
 801 -104 816 -94 816 -94 c 5
 816 -94 772 -177 699 -177 c 4
 620 -177 530 -64 530 -64 c 5
 530 -64 462 -178 303 -178 c 4
 92 -178 51 -42 51 53 c 4
 51 148 122 260 246 317 c 4
 249 318 252 321 253 324 c 4
 253 326 252 329 250 331 c 4
 242 339 189 403 189 495 c 4
 189 628 279 705 392 705 c 4
388 656 m 4
 340 656 294 627 294 546 c 4
 294 472 337 403 352 385 c 5
 352 385 482 454 482 570 c 4
 482 628 440 656 388 656 c 4
270 276 m 5
 251 276 156 184 156 93 c 4
 156 61 175 -98 348 -98 c 4
 450 -98 497 -32 497 -32 c 5
 497 -32 296 222 270 276 c 5
EndSplineSet
Validated: 1
EndChar

StartChar: sterling
Encoding: 163 163 47
Width: 660
Flags: W
HStem: -188 70<238.599 537.805> -169 61<212 413.688> 230 62<68 136 252 422> 646 51<316.028 479.556>
VStem: 136 116<-70.8813 230 292 542.104>
LayerCount: 2
Fore
SplineSet
385 697 m 4xb8
 477 697 495 688 585 635 c 5
 596 504 l 5
 596 504 533 646 392 646 c 4
 261.413085938 646 248.1953125 525.258789062 248.1953125 385.157226562 c 0
 248.1953125 354.672851562 248.821289062 323.272460938 249 292 c 5
 422 292 l 5
 422 230 l 5
 252 230 l 5
 252 217 252 204 252 191 c 4
 252 -12 237 -82 212 -108 c 5x78
 328 -108 392 -118 449 -118 c 4
 551 -118 608 -38 608 -38 c 5
 561 -174 l 5
 561 -174 534 -188 494 -188 c 4xb8
 398 -188 245 -169 187 -169 c 4x78
 129 -169 50 -174 50 -174 c 5
 50 -118 l 5
 109 -118 130 -46 131 3 c 4
 132 103 135 102 136 230 c 5
 68 230 l 5
 68 292 l 5
 136 292 l 5
 136 321 136 355 136 394 c 4
 136 671 293 697 385 697 c 4xb8
EndSplineSet
Validated: 524289
EndChar

StartChar: percent
Encoding: 37 37 48
Width: 647
Flags: W
HStem: -176 24<394.808 477.775> 225 24<401.149 472.269> 288 24<170.808 253.775> 678 20G<580.17 594> 689 24<177.149 248.269>
VStem: 58 57<390.23 603.376> 282 57<-73.7701 139.376> 307 57<387.794 604.272> 531 57<-76.2061 140.272>
LayerCount: 2
Fore
SplineSet
214 713 m 4xed80
 313 713 364 587 364 495 c 4
 364 403 315 288 214 288 c 4
 113 288 58 395 58 495 c 4
 58 595 115 713 214 713 c 4xed80
594 698 m 5xf480
 594 611 l 5
 56 -167 l 5
 56 -80 l 5
 594 698 l 5xf480
213 689 m 4xed80
 143 689 115 584 115 495 c 4
 115 406 133 312 213 312 c 4
 293 312 307 413 307 495 c 4
 307 577 283 689 213 689 c 4xed80
438 249 m 4
 537 249 588 123 588 31 c 4
 588 -61 539 -176 438 -176 c 4
 337 -176 282 -69 282 31 c 4xe680
 282 131 339 249 438 249 c 4
437 225 m 4
 367 225 339 120 339 31 c 4
 339 -58 357 -152 437 -152 c 4
 517 -152 531 -51 531 31 c 4
 531 113 507 225 437 225 c 4
EndSplineSet
Validated: 1
EndChar

